<svg width="137" height="204" viewBox="0 0 137 204" fill="none" xmlns="http://www.w3.org/2000/svg">
<path fill-rule="evenodd" clip-rule="evenodd" d="M62.0121 0H1.03204V111.43C5.15577 102.66 11.0966 94.8819 18.4518 88.6156V17.55H62.0067C73.5564 17.55 84.6382 22.1731 92.8041 30.4003C100.97 38.6276 105.562 49.7854 105.562 61.4197C105.562 73.0539 100.975 84.2117 92.8041 92.4389C84.6382 100.666 73.5564 105.289 62.0067 105.289C53.8571 105.569 46.034 108.554 39.7396 113.768C33.4452 118.989 29.0386 126.153 27.2052 134.156C25.3664 142.153 26.2042 150.545 29.5826 158.016C32.961 165.487 38.6951 171.628 45.8926 175.484V142.58C45.8164 137.897 47.3995 133.345 50.3481 129.73C53.3022 126.115 57.4314 123.672 62.0067 122.839C65.1457 122.839 68.263 122.593 71.3259 122.116L111.97 204H136.049L91.8575 114.974C96.6775 112.251 101.144 108.855 105.121 104.846C116.556 93.3263 122.981 77.7044 122.981 61.4142C122.981 45.124 116.556 29.502 105.121 17.9828C93.6908 6.46898 78.1806 0 62.0121 0ZM24.991 24.1286H62.0121C71.8318 24.1286 81.2489 28.056 88.1907 35.0508C95.1325 42.0456 99.0332 51.5272 99.0332 61.4197C99.0332 71.3121 95.1325 80.7937 88.1907 87.7885C81.2489 94.7833 71.8318 98.7107 62.0121 98.7107C54.8473 98.7107 47.7967 100.491 41.4805 103.892C35.1643 107.294 29.7785 112.213 25.7962 118.211C21.8193 124.209 19.3658 131.105 18.664 138.286C17.9622 145.467 19.0285 152.708 21.7704 159.374C24.5123 166.041 28.8427 171.924 34.3809 176.497C39.9191 181.076 46.491 184.204 53.5144 185.612C60.5378 187.02 67.8006 186.658 74.6553 184.566C81.5101 182.473 87.7446 178.705 92.8095 173.605L100.6 189.298C93.0978 195.745 84.1486 200.264 74.5302 202.466C64.9063 204.668 54.9017 204.482 45.3703 201.929C35.8335 199.377 27.0583 194.535 19.7901 187.814C12.5219 181.093 6.98371 172.696 3.64338 163.346C0.308488 153.996 -0.730605 143.966 0.629465 134.123C1.98409 124.28 5.69436 114.919 11.4339 106.834C17.1733 98.7491 24.7734 92.1925 33.5867 87.7228C42.3945 83.2476 52.1543 80.9964 62.0175 81.1607C67.2184 81.1607 72.2017 79.0792 75.8739 75.3764C79.5461 71.6736 81.6134 66.6507 81.6134 61.4142C81.6134 56.1776 79.5461 51.1547 75.8739 47.4519C72.1963 43.7491 67.213 41.6676 62.0175 41.6676H42.4162V76.7622C36.2905 78.411 30.4259 80.9252 24.9965 84.2226V24.1286H24.991ZM119.94 161.445L98.598 118.452C103.423 115.231 107.814 111.397 111.665 107.048C117.149 114.842 120.756 123.82 122.192 133.263C123.629 142.706 122.856 152.358 119.94 161.45V161.445Z" fill="#7E92F7"/>
</svg>
